<?xml version="1.0" encoding="iso-8859-1"?>
<!-- Generator: Adobe Illustrator 16.0.0, SVG Export Plug-In . SVG Version: 6.00 Build 0)  -->
<!DOCTYPE svg PUBLIC "-//W3C//DTD SVG 1.1//EN" "http://www.w3.org/Graphics/SVG/1.1/DTD/svg11.dtd">
<svg version="1.1" id="Capa_1" xmlns="http://www.w3.org/2000/svg" xmlns:xlink="http://www.w3.org/1999/xlink" x="0px" y="0px"
	 width="34.369px" height="34.369px" viewBox="0 0 34.369 34.369" style="enable-background:new 0 0 34.369 34.369;"
	 xml:space="preserve">
<g>
	<g>
		<path d="M27.835,25.026c-1.535,0.57-2.951,1.156-4.766,1.574c-0.312,0.072-0.586,0.092-0.843,0.09l0.072,0.092v0.311
			c0,1.926-3.626,2.607-6.729,2.607c-3.104,0-6.73-0.682-6.73-2.607v-0.311l0.881-1.105l0.134-0.08
			c0.782-0.48,2.073-0.836,3.619-1.002c-0.036-0.723-0.131-1.816-0.297-3.127c-0.369,0.242-1.014,0.211-1.153-0.332
			c-0.187-0.74-1.38-5.936-1.731-6.741c-0.353-0.805-2.407-0.266-2.165,1.107c0.237,1.371,1.08,5.634,1.082,6.169
			c0,0.537-0.814,0.705-1.41,0.035c-0.59-0.672-2.192-3.555-2.763-4.729c-0.563-1.174-2.606-0.459-2.11,0.67
			c0.499,1.13,3.08,6.288,3.198,7.245c0.059,0.479,0.072,2.031,0.354,3.537c0.275,1.508,0.808,2.967,0.511,3.539
			c-0.532,1.021,2.262,0.881,4.38,1.021c2.118,0.143,2.954,2.057,4.771,1.125c0.565-0.291,0.992-0.846,2.213-1.348
			c1.554-0.637,3.633-0.627,4.448-1.537c0.623-0.695,2.3-2.146,2.817-2.551c0.514-0.4,1.861-0.758,2.42-1.008
			c0.558-0.25,0.62-0.883,1.04-1.037c0.422-0.152,1.41-0.453,2.276-1.176C32.227,24.741,29.373,24.454,27.835,25.026z"/>
		<path d="M17.449,22.049c0.146,0.973,0.235,1.834,0.287,2.555c1.236,0.137,2.27,0.393,3.038,0.734
			c0.02-0.221,0.069-0.455,0.185-0.717c0.664-1.48,2.951-7.294,3.248-8.216c0.303-0.922-1.82-1.277-2.437-0.269
			c-0.605,1.01-2.997,4.931-3.22,5.337C18.348,21.842,17.875,22.04,17.449,22.049z"/>
		<path d="M5.201,4.65c0,0,0.747,1.196,1.863,1.365c0.829,0.123,1.63-0.354,1.986-0.609c4.332,6.184,5.41,18.221,5.322,20.002
			c-1.8,0.109-3.278,0.467-4.053,0.943l-0.591,0.74c0,0.947,2.616,1.719,5.842,1.719s5.84-0.771,5.84-1.719l-0.59-0.74
			c-0.756-0.465-2.186-0.814-3.927-0.932c-0.066-1.447-0.296-3.795-1.007-6.68c-0.437-2.521,1.425-8.028,2.033-9.338
			c0.175,0.088,1.266,0.598,2.208,0.226c1.026-0.405,1.475-1.709,1.475-1.709s-1.217-0.647-2.244-0.243
			c-0.443,0.175-0.771,0.518-1.011,0.853c0.674-1.307,1.511-2.666,2.587-4.051c-0.877,0.91-1.634,1.833-2.289,2.75
			c0.298-0.598,0.642-1.54,0.42-2.465c-0.362-1.515-2.1-2.402-2.1-2.402s-1.148,1.576-0.787,3.095
			c0.34,1.423,1.873,2.279,2.063,2.38c-1.229,1.833-3.188,7.124-3.308,7.648c-0.183-0.539-2.856-6.646-4.287-8.878
			c0.445,0.132,1.064,0.232,1.633,0.009c1.025-0.407,1.474-1.711,1.474-1.711s-1.22-0.647-2.245-0.243
			c-0.65,0.256-1.068,0.872-1.286,1.291C8.899,3.971,7.317,1.97,5.417,0C6.562,1.473,7.532,2.927,8.41,4.358
			C8.123,4.14,7.778,3.948,7.382,3.889C6.266,3.723,5.201,4.65,5.201,4.65z"/>
	</g>
</g>
<g>
</g>
<g>
</g>
<g>
</g>
<g>
</g>
<g>
</g>
<g>
</g>
<g>
</g>
<g>
</g>
<g>
</g>
<g>
</g>
<g>
</g>
<g>
</g>
<g>
</g>
<g>
</g>
<g>
</g>
</svg>
