<?xml version="1.0" encoding="iso-8859-1"?>
<!-- Generator: Adobe Illustrator 19.0.0, SVG Export Plug-In . SVG Version: 6.00 Build 0)  -->
<svg version="1.1" id="Layer_1" xmlns="http://www.w3.org/2000/svg" xmlns:xlink="http://www.w3.org/1999/xlink" x="0px" y="0px"
	 viewBox="0 0 512 512" style="enable-background:new 0 0 512 512;" xml:space="preserve">
<g>
	<g>
		<path d="M308.733,140.608l-47.764-64.327c-1.976-2.66-5.966-2.661-7.941,0l-47.767,64.327c-2.421,3.259-0.085,7.894,3.971,7.894
			h8.722l5.554,30.594c19.978-0.589,36.432,14.881,37.45,34.522c0.001,0.013,0,0.028,0,0.042h19.125c2.391,0,4.438-1.71,4.866-4.063
			l11.092-61.095h8.722C308.822,148.502,311.15,143.864,308.733,140.608z M256.999,167.628c-10.401,0-18.832-8.432-18.832-18.832
			c0-10.401,8.432-18.832,18.832-18.832c10.401,0,18.832,8.432,18.832,18.832C275.831,159.197,267.4,167.628,256.999,167.628z"/>
	</g>
</g>
<g>
	<g>
		<path d="M98.767,6.916c-24.746,0-44.805,20.061-44.805,44.805c0,24.828,20.177,44.805,44.805,44.805
			c24.627,0,44.805-19.976,44.805-44.805C143.572,26.975,123.513,6.916,98.767,6.916z"/>
	</g>
</g>
<g>
	<g>
		<path d="M246.163,214.383c-0.002-0.01-0.005-0.022-0.005-0.035c-0.639-11.928-10.884-21.046-22.705-20.434l-74.681,3.871
			l-34.977-47.144l41.993,33.035v-43.466c0-16.716-13.551-30.267-30.267-30.267H71.544c-16.716,0-30.267,13.551-30.267,30.267
			v144.576c0,0,8.831,82.191,9.796,89.967L8.58,477.891c-5.195,12.61,0.814,27.046,13.426,32.24
			c12.609,5.196,27.044-0.817,32.24-13.426l44.967-109.142c1.621-3.935,2.199-8.222,1.674-12.446
			c-0.826-6.662-6.875-55.454-7.727-62.329h19.18c2.079,15.92,2.135,16.346,6.953,53.242L94.696,482.182
			c-2.826,13.343,5.7,26.45,19.043,29.275c13.342,2.827,26.45-5.7,29.275-19.043l25.472-120.28c0.579-2.733,0.689-5.544,0.328-8.315
			c-13.352-102.238-12.365-95.481-13.026-97.897v-10.369c-5.89,0.306-3.534,0.183-15.586,0.808
			c-16.904,0.877-29.755-10.458-32.851-17.631l-25.02-57.934c0.148,0.2,38.639,52.079,38.639,52.079
			c4.007,5.383,9.979,8.688,18.465,8.688l86.257-4.472C237.642,236.473,246.78,226.281,246.163,214.383z"/>
	</g>
</g>
<g>
	<g>
		<path d="M493.708,0H270.795c-4.032,0-7.775,2.098-9.879,5.538c-2.104,3.44-2.272,7.73-0.432,11.319
			c4.425,8.629,12.172,16.734,22.642,24.062c-0.007,0.294-0.022,0.586-0.022,0.881c0,22.588,18.312,40.901,40.901,40.901
			c0.895,0,1.779-0.039,2.659-0.096c4.836,17.198,20.623,29.812,39.367,29.812c3.59,0,7.069-0.465,10.386-1.334l18.782,18.782
			c10.64,10.64,16.617,25.071,16.617,40.119V500.42c0,6.395,5.185,11.58,11.58,11.58h51.711c6.396,0,11.581-5.185,11.581-11.58
			V169.984c0-15.048,5.978-29.479,16.617-40.118c1.271-1.271,1.983-2.993,1.983-4.789V11.581C505.289,5.185,500.104,0,493.708,0z
			 M471.756,126.711c-5.968,5.968-14.063,9.321-22.503,9.321c-8.441,0-16.535-3.353-22.503-9.321l-29.166-29.167
			c2.218-2.685,4.09-5.663,5.571-8.86c8.282,12.078,22.179,20.006,37.932,20.006c16.693,0,31.306-8.899,39.358-22.211
			c3.621,6.634,8.714,12.345,14.836,16.709L471.756,126.711z"/>
	</g>
</g>
<g>
</g>
<g>
</g>
<g>
</g>
<g>
</g>
<g>
</g>
<g>
</g>
<g>
</g>
<g>
</g>
<g>
</g>
<g>
</g>
<g>
</g>
<g>
</g>
<g>
</g>
<g>
</g>
<g>
</g>
</svg>
